<?xml version="1.0" standalone="no"?>
<!DOCTYPE svg PUBLIC "-//W3C//DTD SVG 20010904//EN"
 "http://www.w3.org/TR/2001/REC-SVG-20010904/DTD/svg10.dtd">
<svg version="1.0" xmlns="http://www.w3.org/2000/svg"
 width="199.000000pt" height="254.000000pt" viewBox="0 0 199.000000 254.000000"
 preserveAspectRatio="xMidYMid meet">

<g transform="translate(0.000000,254.000000) scale(0.100000,-0.100000)"
fill="#000000" stroke="none">
<path d="M0 1270 l0 -1270 995 0 995 0 0 1270 0 1270 -995 0 -995 0 0 -1270z
m1175 1189 c208 -13 355 -34 367 -51 4 -7 11 -24 15 -38 3 -14 16 -48 29 -77
24 -56 56 -78 178 -124 l55 -20 -44 -54 c-61 -75 -86 -160 -86 -285 0 -149 13
-216 116 -591 102 -369 125 -519 106 -685 -22 -194 -84 -301 -199 -344 -50
-19 -73 -22 -197 -19 -330 8 -397 5 -442 -19 -23 -12 -44 -26 -48 -32 -3 -5
-14 -14 -24 -20 -14 -7 -23 -4 -37 13 -19 22 -19 22 1 7 13 -9 12 -6 -3 8 -14
13 -31 21 -39 18 -8 -3 -11 -1 -8 4 7 12 -40 24 -56 14 -8 -5 -9 -3 -4 6 7 11
-29 12 -196 6 -305 -12 -338 -12 -326 -3 7 5 1 7 -15 4 -16 -2 -25 0 -21 6 3
5 -3 6 -17 2 -17 -5 -21 -4 -15 6 6 9 4 11 -7 6 -9 -3 -24 1 -35 8 -10 8 -14
15 -9 15 5 0 -9 19 -31 43 -96 104 -127 324 -83 579 10 62 42 199 71 303 89
328 109 407 124 500 35 212 6 369 -88 468 l-33 36 84 32 c110 43 143 74 173
166 26 81 13 74 159 93 84 11 278 26 375 29 28 0 122 -4 210 -10z m505 -235
c0 -2 -9 0 -20 6 -11 6 -20 13 -20 16 0 2 9 0 20 -6 11 -6 20 -13 20 -16z"/>
<path d="M670 2426 c-209 -24 -195 -18 -220 -89 -36 -97 -57 -123 -131 -157
-36 -16 -71 -30 -77 -30 -23 0 -20 -18 9 -58 47 -64 71 -144 77 -253 7 -149
-11 -239 -136 -689 -72 -257 -85 -337 -86 -515 -1 -139 2 -169 21 -231 24 -77
63 -141 82 -136 7 1 10 -2 7 -7 -8 -13 19 -32 37 -25 8 3 18 1 22 -5 4 -7 0
-8 -11 -4 -11 4 -15 2 -11 -4 12 -19 102 -38 182 -37 44 0 152 4 241 8 139 8
167 7 215 -8 30 -9 65 -25 78 -36 25 -18 26 -18 80 14 55 31 57 31 191 30 74
0 200 -2 280 -4 130 -4 150 -2 190 17 112 52 160 140 180 333 19 174 -8 340
-116 720 -84 295 -106 407 -106 545 0 131 23 219 77 290 l35 45 -27 10 c-134
49 -156 67 -193 158 -18 43 -36 81 -40 85 -33 36 -628 58 -850 33z m733 -30
c54 -7 99 -15 101 -17 2 -2 18 -39 36 -82 22 -53 42 -85 65 -102 17 -14 34
-25 38 -25 3 0 26 -9 51 -19 l45 -20 -39 -74 c-21 -42 -42 -96 -45 -121 -7
-47 -23 -58 -44 -32 -10 12 -77 49 -91 51 -3 0 -11 4 -18 8 -6 5 -60 25 -120
47 -252 90 -501 91 -759 5 -103 -35 -234 -95 -265 -123 -17 -14 -18 -13 -18
15 0 46 -26 123 -60 176 -27 43 -28 48 -12 54 120 44 156 77 194 181 25 69 16
65 168 82 52 5 111 12 130 14 74 9 550 -4 643 -18z m-393 -391 c7 -18 17 -25
35 -25 30 0 32 -11 5 -28 -16 -10 -18 -16 -10 -38 14 -36 13 -37 -16 -17 -21
13 -30 14 -45 5 -28 -18 -31 -15 -24 17 5 23 2 29 -14 34 -31 8 -25 27 8 27
22 0 30 6 35 25 4 14 9 25 11 25 3 0 10 -11 15 -25z m-40 -169 c-24 -23 -160
-63 -138 -40 10 9 122 54 138 54 13 0 13 -2 0 -14z m137 -17 c35 -16 43 -23
29 -26 -20 -5 -100 22 -131 45 -19 13 -17 14 17 9 20 -3 58 -16 85 -28z m-207
-146 c-40 -76 -83 -149 -97 -163 l-25 -25 11 25 12 25 -20 -24 c-24 -26 -25
-24 -11 16 9 26 9 27 -5 9 -15 -20 -15 -20 -15 0 -1 16 -3 16 -16 -6 -11 -18
-14 -20 -10 -5 6 20 6 20 -9 1 -35 -46 -13 19 44 126 l60 112 73 22 c40 12 74
22 76 23 2 0 -29 -61 -68 -136z m248 97 c14 0 34 -28 76 -109 31 -60 56 -118
56 -128 0 -15 -2 -16 -10 -3 -8 12 -10 12 -11 -5 l0 -20 -9 20 -9 20 -1 -20
c-1 -18 -2 -17 -15 5 -17 29 -19 22 -6 -13 7 -18 6 -27 -2 -30 -23 -9 -43 18
-107 143 -34 69 -69 134 -76 145 -23 32 -17 34 41 14 30 -10 63 -19 73 -19z
m82 -415 c117 -225 255 -492 307 -593 52 -101 93 -185 91 -187 -9 -9 -162 -44
-221 -50 -62 -7 -67 -9 -67 -31 0 -16 -7 -25 -22 -29 -84 -20 -141 -26 -278
-29 -85 -2 -131 -2 -101 1 43 3 62 11 90 35 57 50 95 61 189 55 45 -2 82 -1
82 4 0 13 -30 100 -48 138 l-15 34 -62 -6 c-34 -3 -86 -15 -116 -26 -30 -12
-55 -21 -56 -21 -2 0 -3 10 -3 22 0 17 -3 19 -12 10 -14 -14 -48 2 -48 24 0 9
-5 12 -12 8 -8 -5 -9 -1 -5 12 6 15 3 14 -13 -5 l-20 -23 -50 18 c-44 16 -49
20 -44 41 5 20 3 23 -25 23 -26 0 -34 6 -52 41 -11 23 -15 38 -9 34 7 -4 9 1
5 18 -5 20 -2 27 14 32 12 3 19 11 16 16 -4 5 -13 5 -24 0 -30 -16 -38 0 -33
67 4 58 6 62 29 62 15 0 23 5 20 13 -2 6 -11 11 -21 9 -24 -4 -19 17 14 71 26
41 33 46 50 37 29 -15 32 -13 25 19 -6 27 -2 32 40 57 39 22 49 25 56 13 5 -8
9 -18 9 -22 0 -19 25 1 30 24 4 15 14 25 29 27 24 4 53 28 70 61 14 25 14 78
1 86 -16 10 -12 40 10 68 30 38 25 71 -17 118 -35 39 -38 46 -35 93 2 37 0 47
-7 36 -9 -12 -11 -12 -11 6 0 29 11 37 25 16 7 -9 108 -201 225 -427z m-279
313 c-3 -21 -6 -26 -9 -15 -3 17 3 47 11 47 2 0 1 -15 -2 -32z m89 -65 c20
-33 19 -42 -10 -106 -24 -55 -35 -58 -20 -6 13 46 12 79 -3 109 -7 14 -16 33
-20 43 -6 16 -5 17 14 3 12 -8 29 -27 39 -43z m-295 -137 c19 -8 35 -18 35
-21 0 -15 -75 -143 -97 -165 l-25 -25 13 25 c12 24 11 24 -6 10 -17 -14 -18
-13 -12 10 6 24 5 24 -8 6 -15 -20 -15 -20 -15 0 0 16 -2 17 -10 4 -9 -13 -10
-13 -10 0 0 13 -1 13 -10 0 -8 -13 -10 -13 -10 -1 0 25 74 160 90 165 26 7 30
6 65 -8z m559 4 c29 -10 96 -134 95 -172 0 -22 -1 -22 -9 -3 -8 18 -9 18 -10
-5 -2 -21 -3 -22 -7 -5 -8 32 -21 39 -16 8 l4 -28 -15 30 -16 30 5 -35 c4 -28
3 -31 -4 -14 -5 12 -15 25 -21 29 -9 6 -9 2 0 -15 6 -12 9 -24 6 -28 -3 -3 -6
0 -6 6 0 7 -6 12 -12 12 -12 1 -83 141 -83 164 0 10 41 36 57 36 4 0 18 -4 32
-10z m-264 -67 c0 -16 -10 -39 -21 -53 l-21 -25 7 25 c4 14 9 37 12 53 3 15 9
27 14 27 5 0 9 -12 9 -27z m-405 -165 c14 -6 25 -16 25 -21 0 -17 -91 -181
-112 -202 l-20 -20 7 25 c7 24 7 25 -9 5 -16 -19 -16 -19 -11 10 l6 30 -15
-25 c-14 -23 -15 -23 -16 -5 l-1 20 -9 -20 c-8 -18 -9 -18 -10 5 -1 23 -2 23
-10 5 -5 -11 -9 -14 -9 -7 -1 7 22 57 49 112 46 93 52 100 80 100 16 0 41 -5
55 -12z m853 -87 c28 -54 52 -109 51 -122 l-1 -24 -8 25 -8 25 -1 -25 c-2 -25
-2 -25 -17 5 l-14 30 5 -30 5 -30 -15 25 -16 25 6 -30 c6 -29 6 -29 -10 -10
l-16 20 5 -20 c3 -11 1 -27 -4 -35 -8 -12 -10 -11 -8 7 2 12 -1 22 -5 22 -4 0
-31 47 -60 103 -51 100 -52 103 -34 121 11 10 35 17 56 17 35 0 37 -2 89 -99z
m-978 -186 c13 -13 10 -24 -24 -89 -20 -41 -50 -84 -64 -97 -15 -13 -21 -17
-14 -9 18 21 15 35 -4 19 -15 -12 -16 -11 -10 11 7 24 6 24 -8 6 -16 -20 -16
-20 -16 0 0 16 -2 17 -10 4 -9 -13 -10 -13 -10 0 0 13 -1 13 -10 0 -7 -10 -10
-11 -10 -2 0 20 78 170 92 176 20 8 71 -3 88 -19z m1056 17 c22 -14 94 -161
93 -189 l-1 -28 -8 25 -8 25 -2 -25 c-2 -21 -3 -22 -7 -5 -8 34 -25 43 -18 10
5 -26 4 -27 -4 -7 -14 31 -23 28 -15 -5 7 -28 7 -28 -12 -8 -10 12 -15 15 -10
8 12 -19 4 -24 -14 -9 -12 9 -85 140 -98 176 -4 11 48 39 73 39 11 1 25 -3 31
-7z m-1186 -250 l23 -19 -33 -64 c-19 -35 -35 -65 -36 -67 -1 -2 -76 30 -102
44 -6 3 50 109 62 116 20 14 63 8 86 -10z m1342 -37 c15 -27 28 -54 28 -60 0
-14 -90 -49 -100 -39 -5 5 -22 34 -39 65 -24 44 -28 59 -18 67 20 16 40 21 72
19 25 -2 35 -10 57 -52z m-807 -41 c20 -9 22 -12 6 -8 -51 13 -136 21 -144 14
-4 -4 17 -10 48 -14 30 -3 78 -15 106 -25 32 -13 49 -15 46 -8 -3 7 5 12 18
12 13 0 21 -5 18 -12 -3 -7 14 -5 46 8 28 10 75 22 106 25 30 4 55 11 55 16 0
11 -93 -1 -144 -18 -49 -18 -58 -17 -26 1 14 7 56 19 94 25 80 14 89 9 110
-61 l14 -44 -88 0 c-83 0 -91 -2 -134 -32 -55 -39 -57 -39 -81 -13 -31 34 -97
53 -170 48 -74 -5 -75 -3 -45 67 l20 46 57 -7 c32 -3 72 -13 88 -20z m-523
-108 l54 -15 -2 -48 c-1 -26 -3 -52 -3 -57 -1 -5 -27 -6 -58 -2 -62 7 -142 40
-183 74 l-25 21 55 1 c77 0 85 9 39 45 -53 42 -48 49 15 21 30 -13 78 -31 108
-40z m1329 24 c-43 -38 -44 -39 -20 -44 13 -3 42 -7 64 -8 l40 -3 -45 -29
c-42 -28 -145 -66 -176 -66 -10 0 -14 15 -14 58 l0 58 53 17 c28 10 70 26 92
36 56 27 56 25 6 -19z m-1326 0 c13 -6 15 -9 5 -9 -8 0 -22 4 -30 9 -18 12 -2
12 25 0z m-190 -20 c-3 -5 2 -10 11 -10 10 0 15 -2 13 -5 -3 -2 -23 -1 -45 2
l-39 7 30 7 c17 4 31 7 33 8 2 0 0 -3 -3 -9z m295 -5 c64 -14 64 -15 12 -9
-29 2 -62 9 -75 14 -31 13 -12 11 63 -5z m1266 -8 c4 -4 -5 -7 -20 -7 -15 0
-25 4 -22 9 7 10 31 9 42 -2z m-1133 -14 c-13 -2 -33 -2 -45 0 -13 2 -3 4 22
4 25 0 35 -2 23 -4z m-40 -13 c26 0 37 -4 37 -15 0 -8 -3 -15 -6 -15 -15 0
-114 32 -114 37 0 3 10 3 23 -1 12 -3 39 -6 60 -6z m324 -19 c24 -14 41 -26
39 -28 -1 -2 -31 6 -66 17 -39 13 -90 20 -136 20 -41 0 -74 3 -74 8 0 4 44 7
98 7 84 0 103 -3 139 -24z m528 8 c-71 -22 -88 -24 -83 -6 3 6 27 15 54 18 85
10 91 8 29 -12z m-895 -13 c293 -94 633 -93 929 3 35 12 65 21 67 21 2 0 4
-31 4 -69 l0 -70 -52 -15 c-183 -52 -256 -61 -488 -61 -235 0 -328 11 -480 55
l-65 19 0 71 c0 38 2 70 5 70 3 0 39 -11 80 -24z m179 -22 c9 -8 -45 -2 -64 6
-14 7 -8 8 20 3 22 -3 42 -7 44 -9z m130 -20 c8 -7 -63 -2 -94 7 -20 5 -9 6
30 2 33 -3 62 -7 64 -9z"/>
<path d="M853 2273 c-14 -5 -18 -89 -5 -97 5 -3 17 -3 28 0 16 4 19 12 16 35
-2 16 -9 26 -14 23 -5 -3 -7 -12 -4 -20 3 -7 1 -16 -4 -19 -6 -4 -10 9 -10 29
0 27 3 34 15 30 8 -4 15 -2 15 4 0 12 -21 21 -37 15z"/>
<path d="M910 2230 c0 -43 3 -50 20 -50 11 0 20 5 20 10 0 6 -4 10 -10 10 -5
0 -10 7 -10 15 0 8 6 15 13 15 8 0 8 3 -2 9 -12 8 -12 12 -2 25 12 14 10 16
-8 16 -19 0 -21 -6 -21 -50z"/>
<path d="M970 2229 c0 -51 12 -58 23 -14 4 15 5 13 6 -7 0 -16 6 -28 11 -28 6
0 9 20 8 48 -3 40 -6 47 -25 50 -21 3 -23 0 -23 -49z m27 19 c-3 -8 -6 -5 -6
6 -1 11 2 17 5 13 3 -3 4 -12 1 -19z"/>
<path d="M1041 2228 c1 -45 2 -49 9 -23 11 44 11 75 0 75 -6 0 -9 -23 -9 -52z"/>
<path d="M792 2262 c-9 -6 -11 -21 -6 -50 5 -33 11 -42 26 -42 18 0 18 1 3 16
-13 14 -14 19 -3 25 11 7 10 11 -2 20 -11 8 -12 12 -2 16 13 5 17 23 5 23 -5
0 -14 -4 -21 -8z"/>
<path d="M1118 2225 c2 -25 8 -45 13 -45 5 0 9 20 9 45 0 29 -4 45 -13 45 -8
0 -11 -14 -9 -45z"/>
<path d="M744 2225 c5 -29 4 -36 -3 -25 -6 9 -11 10 -11 3 0 -23 12 -43 27
-43 13 0 14 8 9 43 -4 23 -12 47 -18 52 -7 7 -8 -2 -4 -30z"/>
<path d="M1207 2253 c-4 -3 -7 -26 -7 -50 0 -36 3 -43 18 -41 9 2 20 8 24 13
11 15 10 45 -2 45 -5 0 -10 -9 -10 -20 0 -11 -4 -20 -8 -20 -4 0 -6 16 -4 35
4 31 22 51 22 24 0 -5 5 -7 10 -4 6 4 8 11 5 16 -7 10 -38 12 -48 2z"/>
<path d="M698 2245 c-6 -6 9 -86 18 -94 10 -11 13 8 4 37 -6 23 -6 30 2 26 8
-5 9 -1 5 10 -4 10 -7 20 -7 22 0 6 -16 5 -22 -1z"/>
<path d="M1272 2207 c-18 -40 -19 -74 -1 -46 7 11 11 10 23 -6 15 -19 15 -18
16 17 0 20 3 43 6 51 3 8 -2 17 -10 20 -11 5 -21 -6 -34 -36z m28 -7 c0 -11
-4 -20 -9 -20 -5 0 -7 9 -4 20 3 11 7 20 9 20 2 0 4 -9 4 -20z"/>
<path d="M630 2228 c-1 -5 -3 -12 -4 -17 -2 -18 -16 -24 -16 -8 0 10 -5 17
-11 17 -11 0 -6 -23 16 -75 13 -29 13 -29 14 -5 1 22 3 23 12 8 5 -10 15 -18
21 -18 6 0 4 10 -5 23 -8 13 -17 37 -20 53 -2 16 -5 26 -7 22z"/>
<path d="M1336 2203 c-4 -16 -9 -36 -12 -45 -10 -33 13 -18 24 15 l10 32 1
-38 c1 -26 5 -37 13 -35 15 5 41 88 28 88 -5 0 -14 -15 -19 -32 l-9 -33 -1 38
c-1 44 -25 51 -35 10z"/>
<path d="M555 2202 c-9 -6 -11 -39 -6 -89 0 -7 6 -13 12 -13 7 0 9 13 5 38
l-6 37 16 -35 c23 -49 29 -23 7 28 -10 24 -22 38 -28 34z"/>
<path d="M1422 2193 c0 -10 -3 -33 -7 -52 -6 -24 -5 -32 3 -27 6 3 13 20 17
36 4 16 14 34 23 40 9 5 12 10 5 10 -6 0 -18 3 -27 6 -10 4 -15 0 -14 -13z"/>
<path d="M504 2183 c-9 -3 -8 -16 4 -46 18 -49 20 -52 27 -45 3 3 1 17 -5 32
-6 18 -6 25 0 21 14 -9 12 8 -2 27 -7 9 -18 14 -24 11z"/>
<path d="M1461 2155 c-27 -46 -27 -58 0 -50 15 5 19 4 15 -4 -4 -6 -3 -11 3
-11 6 0 13 10 16 23 18 77 0 99 -34 42z m20 -22 c-12 -20 -14 -14 -5 12 4 9 9
14 11 11 3 -2 0 -13 -6 -23z"/>
<path d="M447 2164 c-15 -15 -6 -41 18 -52 26 -12 36 -35 10 -26 -8 4 -15 1
-15 -5 0 -15 37 -14 46 1 4 6 -7 23 -27 40 -19 17 -26 27 -16 24 12 -4 17 -2
15 6 -5 14 -22 21 -31 12z"/>
<path d="M1520 2129 c-23 -44 -19 -64 6 -33 15 18 15 18 11 -3 -3 -13 -1 -26
4 -29 5 -3 12 9 15 26 4 17 11 33 15 36 15 9 10 23 -11 34 -17 9 -22 5 -40
-31z m32 -1 c-7 -7 -12 -8 -12 -2 0 6 3 14 7 17 3 4 9 5 12 2 2 -3 -1 -11 -7
-17z"/>
<path d="M1196 1507 c3 -10 9 -15 12 -12 3 3 0 11 -7 18 -10 9 -11 8 -5 -6z"/>
<path d="M968 1282 c-10 -2 -18 -11 -18 -19 0 -9 -8 -22 -17 -29 -20 -15 -34
-18 -31 -6 0 4 -2 15 -7 25 -7 16 -10 16 -44 -5 -20 -12 -37 -23 -39 -24 -2
-1 1 -11 7 -22 8 -15 6 -23 -10 -38 -20 -18 -22 -18 -33 -2 -11 16 -15 13 -36
-24 -21 -37 -21 -42 -6 -50 26 -15 20 -48 -9 -48 -23 0 -25 -3 -25 -50 0 -46
2 -50 24 -50 30 0 41 -25 17 -42 -18 -13 -23 -60 -8 -74 4 -5 5 0 2 11 -7 20
-6 20 9 1 9 -11 16 -24 16 -29 0 -5 11 -2 24 6 21 14 26 14 36 2 9 -10 9 -19
0 -35 -6 -12 -10 -23 -8 -24 2 -1 20 -12 40 -24 37 -21 38 -21 48 -2 16 30 50
26 50 -5 0 -23 4 -25 45 -25 39 0 45 3 45 20 0 30 30 38 49 13 16 -19 17 -19
46 -1 17 10 35 20 40 22 6 2 5 12 -3 25 -17 30 1 56 28 41 27 -14 28 -13 50
23 21 34 25 48 13 46 -23 -4 -31 3 -28 21 6 31 15 41 33 38 14 -2 18 7 20 46
3 47 2 48 -22 44 -19 -4 -26 0 -30 16 -5 18 4 30 28 39 11 4 -21 67 -35 67 -6
0 -7 6 -2 13 4 6 -5 4 -21 -6 -22 -15 -31 -16 -40 -6 -8 9 -8 10 4 4 12 -7 13
-6 3 6 -8 9 -9 20 -3 29 13 20 12 33 0 25 -5 -3 -10 -1 -10 5 0 6 -4 8 -10 5
-5 -3 -10 -1 -10 5 0 6 -5 8 -10 5 -6 -3 -13 1 -16 10 -6 14 -10 13 -29 -11
-24 -30 -45 -26 -45 10 0 18 -6 25 -27 28 -16 2 -36 2 -45 0z m141 -115 c105
-69 124 -226 40 -313 -19 -20 -43 -41 -54 -47 -30 -16 -127 -37 -139 -30 -6 4
-21 8 -35 9 -26 3 -59 29 -49 40 4 3 16 0 28 -6 21 -11 22 -10 18 23 -3 26 1
38 14 46 12 7 17 22 16 44 l-1 32 -4 -34 c-3 -22 -11 -35 -24 -38 -13 -4 -19
-14 -19 -35 0 -26 -2 -28 -21 -18 -30 16 -41 52 -21 68 9 6 25 9 35 6 17 -5
19 -2 15 30 -2 20 -2 36 2 36 3 0 4 27 4 61 -1 34 4 73 12 87 7 14 11 28 9 32
-2 3 7 7 21 8 13 1 24 -3 24 -9 0 -5 -4 -7 -10 -4 -5 3 -15 3 -22 -1 -8 -5 -6
-10 8 -14 13 -5 26 0 42 17 12 13 22 27 22 30 0 8 -91 -7 -113 -18 -10 -6 -15
-14 -12 -19 3 -6 0 -7 -8 -4 -19 7 -72 -60 -61 -77 4 -7 3 -9 -3 -6 -6 4 -13
-3 -17 -16 -12 -47 -6 -105 18 -149 18 -33 20 -45 10 -45 -8 0 -12 2 -9 5 2 2
-5 22 -15 43 -55 107 -2 239 114 286 48 20 141 9 185 -20z m-245 -338 c-3 -5
-10 -7 -15 -3 -5 3 -7 10 -3 15 3 5 10 7 15 3 5 -3 7 -10 3 -15z"/>
<path d="M1060 1164 c68 -31 77 -51 73 -161 -2 -54 -6 -109 -10 -123 -13 -50
-12 -52 8 -35 31 29 59 98 59 146 -1 86 -62 169 -135 183 -29 6 -29 6 5 -10z
m104 -90 c3 -8 2 -12 -4 -9 -6 3 -10 10 -10 16 0 14 7 11 14 -7z"/>
<path d="M941 1114 c0 -11 3 -14 6 -6 3 7 2 16 -1 19 -3 4 -6 -2 -5 -13z"/>
<path d="M940 1029 c0 -11 4 -18 10 -14 5 3 7 12 3 20 -7 21 -13 19 -13 -6z"/>
<path d="M980 1000 c0 -5 5 -10 11 -10 5 0 7 5 4 10 -3 6 -8 10 -11 10 -2 0
-4 -4 -4 -10z"/>
<path d="M941 984 c0 -11 3 -14 6 -6 3 7 2 16 -1 19 -3 4 -6 -2 -5 -13z"/>
<path d="M976 895 c-3 -8 -1 -15 4 -15 6 0 10 7 10 15 0 8 -2 15 -4 15 -2 0
-6 -7 -10 -15z"/>
<path d="M982 835 c-1 -17 -7 -36 -12 -41 -7 -7 0 -9 22 -5 18 2 25 7 16 9
-10 2 -18 15 -21 35 l-4 32 -1 -30z"/>
<path d="M1080 820 c-9 -6 -10 -10 -3 -10 6 0 15 5 18 10 8 12 4 12 -15 0z"/>
<path d="M938 803 c7 -3 16 -2 19 1 4 3 -2 6 -13 5 -11 0 -14 -3 -6 -6z"/>
<path d="M800 789 c0 -5 5 -7 10 -4 6 3 10 8 10 11 0 2 -4 4 -10 4 -5 0 -10
-5 -10 -11z"/>
<path d="M760 632 c0 -5 27 -12 59 -15 33 -4 83 -15 111 -26 31 -12 50 -15 47
-8 -8 25 -217 73 -217 49z"/>
<path d="M1125 625 c-77 -17 -115 -32 -115 -45 0 -13 13 -13 26 -1 13 14 121
41 161 41 18 0 33 5 33 10 0 13 -31 12 -105 -5z"/>
<path d="M750 603 c0 -6 27 -13 59 -16 33 -4 84 -16 113 -27 62 -23 58 -23 58
-11 0 5 -24 19 -54 30 -62 23 -176 39 -176 24z"/>
<path d="M1135 599 c-60 -13 -125 -39 -125 -50 0 -12 -4 -12 58 11 29 11 80
23 113 27 32 3 59 10 59 14 0 11 -52 10 -105 -2z"/>
<path d="M556 429 c-10 -53 -8 -66 8 -43 14 18 15 18 25 -8 11 -30 29 -36 50
-15 10 10 15 8 27 -7 19 -27 24 -18 17 32 -7 51 -22 54 -48 6 -19 -35 -20 -35
-29 -14 -7 15 -6 28 2 41 14 22 9 24 -20 8 -18 -10 -20 -9 -15 5 3 8 2 18 -2
21 -5 2 -11 -9 -15 -26z m114 -39 c0 -5 -4 -10 -10 -10 -5 0 -10 5 -10 10 0 6
5 10 10 10 6 0 10 -4 10 -10z"/>
<path d="M1450 455 c-2 -5 -3 -25 -4 -42 -1 -37 -19 -45 -24 -11 -5 30 -22 48
-22 23 0 -44 12 -65 36 -65 31 0 39 20 26 67 -5 21 -11 34 -12 28z"/>
<path d="M1366 418 c-6 -21 -7 -21 -17 -5 -5 9 -15 17 -20 17 -6 0 -1 -13 10
-29 12 -16 21 -37 21 -47 0 -25 15 -7 16 19 0 12 4 32 8 45 4 12 3 22 -2 22
-5 0 -13 -10 -16 -22z"/>
<path d="M706 384 c-8 -42 2 -57 35 -52 21 3 24 9 24 43 0 36 -3 40 -26 43
-23 3 -27 -1 -33 -34z m44 5 c0 -5 -7 -9 -15 -9 -15 0 -20 12 -9 23 8 8 24 -1
24 -14z m-2 -30 c-2 -6 -8 -10 -13 -10 -5 0 -11 4 -13 10 -2 6 4 11 13 11 9 0
15 -5 13 -11z"/>
<path d="M1280 407 c0 -8 -3 -30 -6 -48 -4 -24 -3 -30 4 -20 6 9 19 11 36 7
30 -7 31 -2 7 38 -19 33 -41 45 -41 23z m25 -27 c3 -5 1 -10 -4 -10 -6 0 -11
5 -11 10 0 6 2 10 4 10 3 0 8 -4 11 -10z"/>
<path d="M848 404 c-5 -4 -8 -26 -7 -48 0 -37 1 -39 10 -16 11 27 8 76 -3 64z"/>
<path d="M1179 406 c-9 -9 3 -86 13 -86 6 0 8 9 5 20 -3 11 -1 18 4 14 5 -3 9
-12 9 -20 0 -26 20 -14 21 14 2 23 2 24 6 5 2 -13 9 -23 15 -23 6 0 8 10 4 23
-3 12 -6 30 -6 40 0 29 -30 20 -31 -10 l-1 -28 -10 28 c-9 25 -19 33 -29 23z"/>
<path d="M871 353 c1 -42 2 -44 8 -18 l8 30 13 -27 c20 -41 30 -34 29 20 -1
39 -2 42 -8 18 l-6 -30 -12 27 c-19 41 -33 32 -32 -20z"/>
<path d="M950 354 c0 -44 1 -45 28 -42 21 2 28 9 30 31 4 33 -13 57 -39 57
-16 0 -19 -8 -19 -46z m46 11 c6 -16 -12 -45 -27 -45 -5 0 -9 14 -9 30 0 32
26 43 36 15z"/>
<path d="M1027 393 c-11 -10 -8 -71 3 -78 6 -3 10 4 10 17 l1 23 18 -22 c21
-25 46 -30 57 -12 3 6 17 8 30 5 28 -7 28 -8 9 38 -20 47 -32 46 -45 -5 -9
-33 -14 -38 -25 -29 -11 9 -12 16 -2 31 10 16 9 21 -3 29 -18 11 -44 13 -53 3z
m43 -23 c0 -5 -7 -10 -15 -10 -8 0 -15 5 -15 10 0 6 7 10 15 10 8 0 15 -4 15
-10z m70 -10 c0 -5 -5 -10 -11 -10 -5 0 -7 5 -4 10 3 6 8 10 11 10 2 0 4 -4 4
-10z"/>
</g>
</svg>
